<?xml version="1.0" encoding="UTF-8" standalone="no"?>
<svg
   xmlns:dc="http://purl.org/dc/elements/1.1/"
   xmlns:cc="http://creativecommons.org/ns#"
   xmlns:rdf="http://www.w3.org/1999/02/22-rdf-syntax-ns#"
   xmlns:svg="http://www.w3.org/2000/svg"
   xmlns="http://www.w3.org/2000/svg"
   xmlns:sodipodi="http://sodipodi.sourceforge.net/DTD/sodipodi-0.dtd"
   xmlns:inkscape="http://www.inkscape.org/namespaces/inkscape"
   height="1024"
   width="1024"
   version="1.1"
   id="svg4"
   sodipodi:docname="cv_education_icon.svg"
   inkscape:version="0.92.4 5da689c313, 2019-01-14">
  <metadata
     id="metadata10">
    <rdf:RDF>
      <cc:Work
         rdf:about="">
        <dc:format>image/svg+xml</dc:format>
        <dc:type
           rdf:resource="http://purl.org/dc/dcmitype/StillImage" />
      </cc:Work>
    </rdf:RDF>
  </metadata>
  <defs
     id="defs8" />
  <sodipodi:namedview
     pagecolor="#ffffff"
     bordercolor="#666666"
     borderopacity="1"
     objecttolerance="10"
     gridtolerance="10"
     guidetolerance="10"
     inkscape:pageopacity="0"
     inkscape:pageshadow="2"
     inkscape:window-width="1366"
     inkscape:window-height="716"
     id="namedview6"
     showgrid="false"
     inkscape:zoom="0.23046875"
     inkscape:cx="512"
     inkscape:cy="512"
     inkscape:window-x="0"
     inkscape:window-y="28"
     inkscape:window-maximized="1"
     inkscape:current-layer="svg4" />
  <path
     d="M320 320H192c-64 0-64 64-64 64h256C384 384 384 320 320 320zM320 448H192c-64 0-64 64-64 64h256C384 512 384 448 320 448zM320 576H192c-64 0-64 64-64 64h256C384 640 384 576 320 576zM768 320H640c-64 0-64 64-64 64h256C832 384 832 320 768 320zM768 448H640c-64 0-64 64-64 64h256C832 512 832 448 768 448zM768 576H640c-64 0-64 64-64 64h256C832 640 832 576 768 576zM608 160c-64 0-128 64-128 64s-64-64-128-64C192 160 0 224 0 224v608l448-32c0 0-1.281 32 31.375 32C512 832 512 800 512 800l448 32V224C960 224 768 160 608 160zM448 768c0 0 1.031-64-64-64-193.031 0-320 64-320 64V256c0 0 128-32 256-32 64 0 128 64 128 64V768zM896 736c0 0-97-32-320-32-62 0-64 64-64 64V288c0 0 64-64 128-64 128 0 256 64 256 64V736z"
     id="path2"
     style="fill:#ffffff;fill-opacity:1" />
</svg>
